<svg xmlns="http://www.w3.org/2000/svg" xmlns:xlink="http://www.w3.org/1999/xlink" viewBox="0 0 130 44" enable-background="new 0 0 130 44"><defs><rect id="a" x=".06" y=".004" width="129.854" height="43.996"/></defs><clipPath id="b"><use xlink:href="#a" overflow="visible"/></clipPath><g clip-path="url(#b)"><defs><rect id="c" width="130" height="44"/></defs><clipPath id="d"><use xlink:href="#c" overflow="visible"/></clipPath><polyline clip-path="url(#d)" fill="#D0202E" points="73.371,0.143 54.758,27.446 54.71,27.446 51.685,15.409 47.997,15.409 52.238,32.038 55.581,32.038 74.293,0.143 73.371,0.143"/><path clip-path="url(#d)" fill="#D0202E" d="M8.967 17.089c-.749 0-1.377.121-1.909.29l-1.04 4.955c.266.023.75.023 1.137.023 1.522 0 2.562-.265 3.263-.772.797-.581 1.305-1.572 1.305-2.587 0-1.208-.943-1.909-2.756-1.909m-2.199 7.057c-.387 0-.87.025-1.161.048l-1.16 5.488c.411.169 1.064.266 1.91.266 1.233 0 2.223-.219 2.949-.822.773-.629 1.208-1.716 1.208-2.733 0-1.715-1.498-2.247-3.746-2.247m4.737-.966v.047c1.595.436 3.19 1.742 3.19 3.723 0 1.717-.99 3.215-2.658 4.109-1.499.822-3.505 1.185-5.995 1.185-2.44 0-4.785-.388-6.042-.968l3.239-15.371c1.305-.484 3.626-.968 6.018-.968 4.448 0 6.574 1.668 6.574 4.013 0 2.368-2.151 3.77-4.326 4.23"/></g><defs><rect id="e" width="130" height="44"/></defs><clipPath id="f"><use xlink:href="#e" overflow="visible"/></clipPath><path clip-path="url(#f)" fill="#D0202E" d="M25.849 17.137c-.579 0-1.257.121-1.668.265l-1.305 6.116c.266.073.774.121 1.209.121 2.465 0 4.519-1.837 4.519-4.327 0-1.209-.676-2.175-2.755-2.175m1.136 7.324v.048l4.036 7.396h-4.688l-3.578-7.517h-.047l-1.62 7.517h-4.23l3.433-16.001c1.328-.483 3.649-.967 5.848-.967 3.988 0 6.719 1.547 6.719 4.497 0 3.359-3.335 4.906-5.873 5.027"/><path clip-path="url(#f)" fill="#D0202E" d="M72.117 17.452c-1.499 0-2.562.918-3.336 2.198-1.039 1.717-1.74 4.763-1.74 6.454 0 1.862.799 3.36 2.563 3.36 1.619 0 2.755-1.064 3.529-2.538.893-1.693 1.522-4.544 1.522-6.139 0-1.861-.774-3.335-2.538-3.335m-2.949 14.792c-4.423 0-6.404-3.191-6.404-6.768 0-3.868 2.271-10.539 9.74-10.539 4.422 0 6.381 3.166 6.381 6.744 0 3.94-2.273 10.563-9.717 10.563"/><path clip-path="url(#f)" fill="#D0202E" d="M43.014 20.04h.048l1.533 6.099h-5.829l4.248-6.099m-.822-4.592l-16.79 28.552h.922l10.882-15.623h7.952l.93 3.7h3.687l-4.242-16.629h-3.341z"/><path clip-path="url(#f)" fill-rule="evenodd" clip-rule="evenodd" fill="#D0202E" d="M89.97 8.198l-.069-.002-.006-.01-.024-.112c-.159-.179-.334-.339-.552-.45-.161-.079-.33-.131-.526-.112l-.289.055c-.311.079-.618.198-.924.315l-.542.195-.247.045-.043-.002-.01-.05.044-.049.122-.108.153-.146.073-.102c.034-.069.012-.096-.06-.073l-.146.058-.494.246c-.158.077-.318.151-.485.191l-.213.032c-.102.002-.113-.045-.042-.126l.142-.137.291-.255.159-.174.062-.135c.01-.076-.052-.114-.108-.09l-.138.064-.28.179c-.214.148-.428.296-.657.417-.216.114-.433.203-.662.241-.157.026-.31.024-.455-.006l-.058-.023c-.045-.023-.051-.06-.017-.11l.084-.096.236-.203.39-.339c.121-.112.23-.237.309-.38l.076-.166.012-.042c.007-.063-.018-.087-.083-.072l-.099.034-.286.158-.922.572c-.235.141-.476.267-.721.377-.293.132-.59.216-.892.256-.282.037-.558.058-.833.054-.293-.003-.576-.022-.847-.093l-.172-.06-.074-.04c-.125-.083-.112-.183.036-.289l.113-.071.108-.052 1.829-.896c.322-.16.64-.329.951-.522l.238-.166.077-.076c.035-.045.026-.083-.024-.088l-.135.006c-.169.03-.336.087-.503.148l-1.341.485c-.499.178-.999.34-1.504.465-.295.072-.588.132-.88.162-.265.029-.526.028-.776-.006-.633-.085-1.201-.283-1.702-.607-.192-.124-.37-.265-.514-.438l-.146-.219-.043-.147.06-.1.096-.041c.147-.049.295-.075.441-.096l.746-.095.664-.066.702-.07.67-.065.684-.082.74-.114c.197-.032.396-.075.59-.145l.231-.103.077-.085-.06-.072c-.089-.041-.19-.061-.293-.072l-.763-.088-.814-.086c-.469-.055-.935-.119-1.383-.23-.243-.061-.474-.133-.694-.236-.288-.14-.526-.338-.734-.57-.287-.324-.507-.697-.688-1.097-.176-.393-.314-.805-.416-1.235l-.019-.092.804.214.794.212.793.214.795.212.794.214.802.213.79.213.795.213.796.213.793.214.8.213-.034-.053c-.194-.18-.385-.363-.552-.565l-.289-.383-.099-.211-.014-.103c.004-.056.031-.081.088-.085l.125.009c.178.039.34.107.503.171.531.212 1.06.428 1.596.633.39.149.791.281 1.184.424.388.142.77.295 1.125.489.156.085.31.18.445.292.097.081.186.172.255.28.14.219.168.469.073.757-.088.261-.106.517-.083.766.033.353.135.672.32.951.065.101.144.19.242.262.083.06.173.099.287.102.065.002.114.032.154.073.052.052.082.117.103.188.049.144.062.301.066.46l.009.196.024-.056c.072-.174.148-.347.258-.508l.17-.216c.084-.087.181-.138.295-.14.083-.002.164-.033.245-.073.13-.064.248-.148.356-.244.412-.369.714-.798.902-1.289.059-.151.097-.304.111-.457.031-.354.219-.645.531-.885.202-.158.425-.278.649-.386.356-.169.718-.307 1.082-.425.473-.154.947-.3 1.42-.446.684-.213 1.366-.451 2.045-.686.229-.08.461-.15.693-.219l.178-.023c.068 0 .086.035.055.099l-.089.139-.278.278c-.281.25-.588.468-.896.681l-.224.151-.05.045c1.622-.384 3.246-.774 4.868-1.166l4.875-1.172-.036.064c-.501.757-1.07 1.462-1.765 2.076-.232.205-.475.389-.735.554-.375.235-.767.384-1.171.485-.346.088-.692.152-1.041.198l-.744.093-.552.053-.69.071-.518.077-.152.05c-.073.033-.086.08-.037.123l.154.099c.159.078.339.119.52.158.306.065.618.112.933.149l.86.097.91.094.729.076c.308.037.616.071.908.147l.173.061c.069.034.076.069.026.146l-.157.185c-.125.126-.268.228-.417.323-.331.217-.679.387-1.039.524-.44.17-.883.282-1.329.343-.324.045-.64.04-.948-.004-.505-.074-.977-.222-1.438-.391-.47-.173-.922-.375-1.378-.572-.214-.093-.426-.19-.656-.258l-.17-.034-.062.004c-.053.009-.079.044-.062.088l.045.076.167.166c.236.199.495.375.757.54.473.297.95.587 1.426.88l.125.084.072.081c.052.075.03.148-.063.21l-.141.071-.312.086c-.341.065-.678.08-1.011.068-.225-.009-.446-.03-.659-.064-.237-.038-.452-.112-.652-.216-.28-.146-.528-.331-.766-.528l-.51-.436-.199-.151-.106-.051c-.071-.022-.113.006-.128.082l-.007.139c.005.112.035.214.083.306l.188.304.222.282.093.156c.033.074.005.125-.088.148l-.228.034c-.234.012-.438-.043-.626-.139-.19-.097-.353-.226-.505-.368l-.267-.254-.135-.112-.08-.042c-.071-.023-.139.019-.154.099l.005.116.079.166.153.221.1.146.029.061c.02.061-.003.098-.075.103l-.178-.015-.282-.111-.447-.27-.152-.091-.087-.04c-.062-.018-.095.009-.087.074l.033.108.086.141.077.112.019.08-.082.017c-.09 0-.173-.023-.249-.055l-.51-.221c-.238-.108-.482-.207-.735-.29-.257-.081-.524-.049-.804.067-.279.115-.535.281-.777.475l-.051.101"/><path clip-path="url(#f)" fill="#D0202E" d="M81.812 10.711s3.702-1.029 5.06-1.726l1.995.379-.238 1.757s-.853-.258-2.585.62c-1.73.879-3.483 0-3.483 0l-.749-1.03"/><polyline clip-path="url(#f)" fill="#5B2D82" points="90.006,2.318 92.354,2.318 82.589,42.774 90.006,2.318"/><path clip-path="url(#f)" fill="#D0202E" d="M84.443 32.656l-.263 1.446s-1.325.502-.94 1.306c.651 1.365 1.811 3.002 1.145 5.465 0 0 .219-2.126-1.456-4.146-1.079-1.298-1.14-2.875 1.514-4.071"/><path clip-path="url(#f)" fill="#D0202E" d="M90.602 9.586s3.088.035 2.977 2.105c-.076 1.424-2.697 2.186-4.188 3.003-1.976 1.081-2.029 2.048-2.128 2.58l-.343 1.877s-1.856-2.072-.492-3.953c1.46-2.019 3.249-2.349 4.054-2.767 1.579-.816-.146-.993-.323-1.023l.443-1.822"/><path clip-path="url(#f)" fill="#5B2D82" d="M93.24 1.995c.235-1.099-.469-1.991-1.567-1.991-1.101 0-2.182.892-2.416 1.991-.234 1.1.469 1.991 1.569 1.991 1.098 0 2.181-.891 2.414-1.991"/><path clip-path="url(#f)" fill="#D0202E" d="M85.091 32.413s.585-.275.181-.656l.258-2.413s1.967.844 1.664 2.268c-.243 1.145-.897 1.681-2.46 2.267l.357-1.466"/><polyline clip-path="url(#f)" fill="#5B2D82" points="81.037,14.648 84.062,14.648 85.599,28.41 85.648,28.41 93.112,14.648 96.138,14.648 86.623,31.757 83.128,31.757 81.037,14.648"/><polyline clip-path="url(#f)" fill="#5B2D82" points="97.029,14.648 107.021,14.648 106.553,16.855 99.462,16.855 98.413,21.789 105.132,21.789 104.663,23.995 97.944,23.995 96.764,29.551 104.053,29.551 103.583,31.757 93.393,31.757 97.029,14.648"/><polyline clip-path="url(#f)" fill="#5B2D82" points="111.883,16.855 107.595,16.855 108.063,14.648 119.543,14.648 119.074,16.855 114.786,16.855 111.618,31.757 108.715,31.757 111.883,16.855"/><path clip-path="url(#f)" fill="#5B2D82" d="M129.345 17.524c-1.046-.446-2.322-1.091-4.056-1.091-1.439 0-2.718.645-3.028 2.107-.643 3.025 7.421 3.472 6.325 8.629-.681 3.2-3.613 4.86-7.333 4.86-2.206 0-4.087-.595-4.583-.718l.637-3c.887.619 2.326 1.661 4.484 1.661 2.28 0 3.268-1.265 3.505-2.381.791-3.72-7.319-3.941-6.286-8.802.648-3.05 3.591-4.414 6.815-4.414 1.909 0 3.495.348 4.089.471l-.569 2.678"/><path clip-path="url(#f)" fill="#D0202E" d="M87.827 24.393c-5.42 2.652-5.067 4.338-5.067 4.338l.242 2.01s-.992-.598-1.337-1.072c-1.035-1.43.335-3.923 3.978-5.786 2.761-1.413 2.945-2.023 2.945-2.023.441-.625-.553-1.647-.553-1.647l.472-1.956c1.319 1.01 1.592 1.949 1.592 1.949l-2.272 4.187"/></svg>