<svg xmlns="http://www.w3.org/2000/svg" viewBox="0 0 197.343 69.181" enable-background="new 0 0 197.343 69.181"><path fill="#009994" d="M14.324 14.323c0-7.91 6.412-14.323 14.322-14.323s14.324 6.413 14.324 14.323h-28.646zm0 28.647c0 7.909 6.412 14.322 14.322 14.322s14.324-6.413 14.324-14.322h-28.646zm12.961-14.386c-7.273-.688-12.961-6.809-12.961-14.261-7.91 0-14.324 6.414-14.324 14.323 0 7.91 6.414 14.324 14.324 14.324 0-7.451 5.688-13.573 12.961-14.26v-.126zm2.725.126c7.271.688 12.961 6.809 12.961 14.26 7.909 0 14.322-6.414 14.322-14.323 0-7.91-6.413-14.323-14.322-14.323 0 7.451-5.689 13.573-12.961 14.261v.125z"/><g fill="#243444"><rect x="97.486" y="55.349" width="2.171" height="1.979"/><polygon points="86.611,28.993 80.748,14.344 71.617,14.344 71.617,42.935 77.769,42.935 77.771,22.649 86.609,43.243 86.614,43.243 95.454,22.649 95.454,42.935 101.605,42.935 101.605,14.344 92.472,14.344"/><path d="M114.22 59.287c-2.133 0-2.92 1.267-3.246 1.806-.346-.711-1.02-1.806-3.15-1.806-.826 0-2.133.135-3.055 1.652v-1.402h-1.826l.039 1.287v8.356h1.824v-5.475c0-.615.02-1.403.424-1.96.211-.288.883-1.057 2.113-1.057 1.422 0 2.113.922 2.113 2.113v6.378h1.824v-5.398c0-.423 0-1.479.422-2.074.25-.346.885-1.019 2.057-1.019.922 0 1.537.403 1.844.846.174.249.326.614.326 1.46v6.186h1.826v-6.474c0-2.843-2.152-3.419-3.535-3.419zM76.37 55.311l-5.84 13.87h1.979l1.499-3.611h6.435l1.499 3.611h2.094l-5.61-13.87h-2.056zm-1.749 8.702l2.69-6.801 2.555 6.801h-5.245z"/><rect x="97.679" y="59.537" width="1.806" height="9.644"/><path d="M90.876 59.345c-2.19 0-2.882 1.345-3.093 1.748l-.02-1.556h-1.806l.019 1.114v8.529h1.806v-5.552c0-1.94 1.21-2.882 2.517-2.882.615 0 1.249.211 1.71.653.442.441.519 1.019.519 1.652v6.128h1.844v-6.549c0-2.959-2.632-3.285-3.496-3.285zM103.908 33.973c-.207 7.128 4.641 9.785 10.299 9.912 6.543.152 11.537-2.644 11.537-8.941 0-6.335-5.666-7.334-10.096-8.772-1.715-.556-4.893-1.054-4.893-3.977 0-2.445 2.115-3.619 4.277-3.619 2.777 0 4.221 1.376 4.426 4.233h5.562c0-5.659-4.348-8.951-9.549-8.951-5.16 0-10.781 3.018-10.781 8.885 0 5.089 5.6 7.706 8.797 8.529 1.754.463 6.184.959 6.184 4.126 0 3.006-3.096 3.828-5.412 3.828-2.986 0-4.738-2.091-4.48-5.252h-5.871zM184.644 56.905l-1.787.576v2.017h-1.711v1.326h1.711v6.435c0 1.575.787 2.056 2.44 2.056.652 0 1.172-.058 1.498-.115v-1.402c-.152.038-.5.096-.863.096-1.287 0-1.287-.807-1.287-1.287v-5.782h2.15v-1.326h-2.15v-2.594z"/><rect x="177.552" y="55.33" width="1.807" height="13.851"/><path d="M174.496 62.149c0-.441-.02-.902-.326-1.479-.518-.979-2.018-1.421-3.42-1.421-1.018 0-2.381.23-3.111 1.037-.557.653-.615 1.325-.672 1.825h1.805c.02-.385.115-1.633 1.941-1.633.518 0 1.305.153 1.67.634.346.423.346.941.346 2.132-.557-.038-.844-.058-1.305-.058-.77 0-2.307.058-3.344.635-1.422.825-1.689 2.055-1.689 2.823 0 1.595 1.189 2.844 3.4 2.844.807 0 2.111-.154 2.977-1.748 0 .499.039.96.174 1.44h1.633c-.135-.979-.154-2.267-.154-2.421l.075-4.61zm-2.229 4.88c-.441.672-1.133 1.037-2.055 1.037-1.613 0-1.998-1.057-1.998-1.671 0-1.96 2.748-1.96 3.476-1.96.441 0 .711.02 1.037.058-.036 1.345-.056 1.883-.46 2.536zM197.017 60.9c-.559-1.172-2.018-1.536-3.037-1.536-1.344 0-2.535.576-3.131 1.594v-5.628h-1.824v13.851h1.824v-5.11c0-.596 0-1.498.309-2.036.248-.461.922-1.287 2.266-1.287 2.076 0 2.076 1.863 2.076 2.728v5.706h1.844v-6.032c-.001-1.404-.136-1.865-.327-2.25zM160.22 59.287c-.557 0-1.709.058-2.633.711-1.518 1.057-1.9 2.632-1.9 4.533 0 3.055 1.439 4.938 4.475 4.938 1.941 0 2.902-.807 3.324-1.287.691-.749.77-1.537.826-2.017h-1.807c-.152 1.383-1.094 1.997-2.266 1.997-1.979 0-2.805-1.479-2.768-3.477h6.936c.04-1.575.135-5.398-4.187-5.398zm-2.67 4.13c.037-2.132 1.459-2.843 2.631-2.843 2.229 0 2.402 1.921 2.383 2.843h-5.014zM152.697 28.652c0-9.903-7.703-14.34-15.293-14.34h-9.129v28.627h9.129c7.59 0 15.293-4.383 15.293-14.287zm-15.705 9.078l-2.527.007v-18.162000000000003h2.527c6.961 0 9.469 4.539 9.469 9.077-.001 4.538-2.508 9.078-9.469 9.078z"/><rect x="131.861" y="55.33" width="1.807" height="13.851"/><polygon points="151.017,61.266 144.427,61.266 144.427,55.311 142.505,55.311 142.505,69.181 144.427,69.181 144.427,62.918 151.017,62.918 151.017,69.181 152.937,69.181 152.937,55.311 151.017,55.311"/><path d="M128.574 62.149c0-.441-.02-.902-.326-1.479-.52-.979-2.018-1.421-3.42-1.421-1.018 0-2.383.23-3.113 1.037-.557.653-.613 1.325-.672 1.825h1.807c.02-.385.115-1.633 1.939-1.633.52 0 1.307.153 1.672.634.346.423.346.941.346 2.132-.557-.038-.846-.058-1.307-.058-.768 0-2.305.058-3.342.635-1.422.825-1.691 2.055-1.691 2.823 0 1.595 1.191 2.844 3.4 2.844.807 0 2.113-.154 2.978-1.748 0 .499.037.96.172 1.44h1.633c-.135-.979-.154-2.267-.154-2.421l.078-4.61zm-2.229 4.88c-.441.672-1.133 1.037-2.057 1.037-1.613 0-1.998-1.057-1.998-1.671 0-1.96 2.748-1.96 3.479-1.96.441 0 .711.02 1.037.058-.039 1.345-.058 1.883-.461 2.536z"/></g></svg>